<svg version="1.1" id="Layer_1" xmlns="http://www.w3.org/2000/svg" xmlns:xlink="http://www.w3.org/1999/xlink" x="0px" y="0px"
	 viewBox="0 0 32 32" style="enable-background:new 0 0 32 32;" xml:space="preserve">
<style type="text/css">
	.Blue{fill:#1177D7;}
</style>
<path class="Blue" d="M30,4l-3,3c-0.6,0.6-1.4,0.6-2,0l0,0c-0.6-0.6-0.6-1.4,0-2l3-3L30,4z"/>
<path class="Blue" d="M27.1,9.1c-0.7,0.7-1.7,1-2.7,0.8c-1.2-0.2-2.1-1.2-2.4-2.4c-0.2-1.1,0.2-2,0.8-2.7L22,4h-4L2.7,19.3
	c-0.4,0.4-0.4,1,0,1.4l8.6,8.6c0.4,0.4,1,0.4,1.4,0L28,14v-4L27.1,9.1z M19,17.7l-1.8-1.8l0.9-0.9c-0.1-0.2-0.2-0.4-0.4-0.5
	c-0.2-0.3-0.7-0.3-1.1,0.1c-0.3,0.4-0.5,0.6-0.3,1.1l0.5,2.1c0.4,1.4,0.3,2.5-0.9,3.7c-1.7,1.8-3,1.2-4.3,0.1L10.4,23l-1.1-1.2
	l1.3-1.4c-0.5-0.6-1.1-1.5-1.6-2.5l2.4-2.5l1.8,1.8L12,18.5c0.2,0.4,0.4,0.7,0.5,0.8c0.5,0.5,0.9,0.6,1.4,0.1
	c0.4-0.4,0.3-0.7,0.3-0.9l-0.5-2c-0.4-1.6-0.5-2.6,0.9-4.1c1.4-1.4,2.6-1.2,3.9-0.2l1.1-1.2l1.1,1.2l-1.1,1.2c0.4,0.4,1,1.2,1.4,2.3
	L19,17.7z"/>
</svg>
