<?xml version='1.0' encoding='UTF-8'?>
<svg viewBox="-4 -8 32 32" xmlns="http://www.w3.org/2000/svg">
  <g id="Layer_1" transform="translate(-4, -8)">
    <g id="EnvelopeClose">
      <path d="M16, 16L28, 9.1L28, 9C28, 8.5 27.5, 8 27, 8L5, 8C4.5, 8 4, 8.5 4, 9L4, 9.1L16, 16z" fill="#FFB115" class="Yellow" />
    </g>
  </g>
  <g id="Layer_1" transform="translate(-4, -8)">
    <g id="EnvelopeClose">
      <path d="M16, 18.3L4, 11.4L4, 23C4, 23.5 4.5, 24 5, 24L27, 24C27.5, 24 28, 23.5 28, 23L28, 11.4L16, 18.3z" fill="#FFB115" class="Yellow" />
    </g>
  </g>
  <g id="Layer_1" transform="translate(12, 8)">
    <g id="Attach_1_">
      <path d="M14, 4L14, 10C14, 12.2 12.2, 14 10, 14L8, 14C5.8, 14 4, 12.2 4, 10L4, 4C4, 2.9 4.9, 2 6, 2L8, 2C9.1, 2 10, 2.9 10, 4L10, 10L8, 10L8, 4L6, 4L6, 10C6, 11.1 6.9, 12 8, 12L10, 12C11.1, 12 12, 11.1 12, 10L12, 4C12, 1.8 10.2, 0 8, 0L6, 0C3.8, 0 2, 1.8 2, 4L2, 10C2, 13.3 4.7, 16 8, 16L10, 16C13.3, 16 16, 13.3 16, 10L16, 4L14, 4z" fill="#727272" class="Black" />
    </g>
  </g>
</svg>